<?xml version="1.0" encoding="UTF-8" standalone="no"?>
<!-- Created with Inkscape (http://www.inkscape.org/) -->

<svg
   width="74.320053mm"
   height="29.183138mm"
   viewBox="0 0 74.320053 29.183138"
   version="1.1"
   id="svg2534"
   xml:space="preserve"
   inkscape:version="1.2 (dc2aedaf03, 2022-05-15)"
   sodipodi:docname="Punk eyes.svg"
   xmlns:inkscape="http://www.inkscape.org/namespaces/inkscape"
   xmlns:sodipodi="http://sodipodi.sourceforge.net/DTD/sodipodi-0.dtd"
   xmlns="http://www.w3.org/2000/svg"
   xmlns:svg="http://www.w3.org/2000/svg"
   xmlns:rdf="http://www.w3.org/1999/02/22-rdf-syntax-ns#"
   xmlns:cc="http://creativecommons.org/ns#"
   xmlns:dc="http://purl.org/dc/elements/1.1/"><title
     id="title3623">Punk eyes</title><sodipodi:namedview
     id="namedview2536"
     pagecolor="#ffffff"
     bordercolor="#666666"
     borderopacity="1.0"
     inkscape:showpageshadow="2"
     inkscape:pageopacity="0.0"
     inkscape:pagecheckerboard="0"
     inkscape:deskcolor="#d1d1d1"
     inkscape:document-units="mm"
     showgrid="false"
     inkscape:zoom="0.61541332"
     inkscape:cx="788.08824"
     inkscape:cy="-160.8675"
     inkscape:window-width="1920"
     inkscape:window-height="1009"
     inkscape:window-x="1912"
     inkscape:window-y="-8"
     inkscape:window-maximized="1"
     inkscape:current-layer="layer1" /><defs
     id="defs2531" /><g
     inkscape:label="Lager 1"
     inkscape:groupmode="layer"
     id="layer1"
     transform="translate(-30.539459,-9.6263739)"><path
       id="path3251"
       style="fill:#ffffff;stroke:none;stroke-width:0.264583px;stroke-linecap:butt;stroke-linejoin:miter;stroke-opacity:1"
       d="m 98.88337,22.786206 -16.498218,1.988509 c -0.322444,0.483669 -3.38584,4.298963 -3.38584,4.298963 l -0.591178,1.128613 4.568197,0.698665 9.028389,0.806153 z M 48.528304,23.00118 c -0.429927,0 -11.823051,0.483691 -11.823051,0.483691 0.483667,1.451006 5.320089,8.652185 5.320089,8.652185 l 8.867159,0.161231 1.934765,-1.934766 3.815788,-0.16123 -1.397331,-3.33158 c 0,0 -6.28749,-3.869531 -6.717419,-3.869531 z" /><path
       id="path2619"
       style="opacity:0.996;fill:#638063;fill-opacity:1;stroke:none;stroke-width:0.706241"
       d="m 47.260164,23.062675 a 3.5697458,2.6116908 0 0 0 -3.569808,2.611727 3.5697458,2.6116908 0 0 0 3.569808,2.611727 3.5697458,2.6116908 0 0 0 3.569808,-2.611727 3.5697458,2.6116908 0 0 0 -3.569808,-2.611727 z m 40.599589,0.132808 a 3.6156864,2.6116908 0 0 0 -3.6158,2.611727 3.6156864,2.6116908 0 0 0 3.6158,2.611727 3.6156864,2.6116908 0 0 0 3.6158,-2.611727 3.6156864,2.6116908 0 0 0 -3.6158,-2.611727 z" /><path
       id="path2550"
       style="fill:#000000;stroke-width:0.177512"
       d="m 34.53914,12.591505 c 0.715663,-0.06762 1.040083,0.105858 3.813086,2.039497 0.997345,0.695439 2.240311,1.537343 2.762174,1.87099 0.521856,0.333639 1.426863,0.98874 2.011436,1.45542 0.58458,0.466675 1.828948,1.32343 2.765308,1.904125 1.842292,1.142537 2.13485,1.548518 1.148347,1.594083 -0.765598,0.03538 -1.789378,-0.299156 -3.331095,-1.088353 -0.967597,-0.495325 -1.372633,-0.837892 -1.97047,-1.666848 l -0.752583,-1.043285 -0.02992,0.999165 c -0.01657,0.549475 -0.08065,1.001058 -0.142683,1.00355 -0.501614,0.02101 -1.748633,-1.437286 -2.321673,-2.715322 -0.614053,-1.369586 -0.757507,-1.466091 -0.699131,-0.470244 0.02851,0.487635 0.04723,1.007403 0.04119,1.155073 -0.006,0.147673 -0.0013,0.496915 0.01033,0.775967 0.01536,0.3619 -0.05354,0.486393 -0.241059,0.434058 -0.144582,-0.04036 -0.28334,0.01381 -0.307982,0.12034 -0.02462,0.106527 -0.632302,-0.53791 -1.35036,-1.432213 -1.457839,-1.815685 -1.607922,-1.756791 -0.949583,0.373195 0.216417,0.700137 0.362233,1.310885 0.323944,1.35716 -0.03831,0.04627 -0.346298,-0.360706 -0.684412,-0.904159 -0.813199,-1.307094 -1.921259,-2.91509 -2.003398,-2.907329 -0.0361,0.0034 0.128224,0.434191 0.365184,0.956957 0.245735,0.542134 0.459012,1.361743 0.49612,1.907839 l 0.06508,0.957455 -0.644988,-0.601077 c -0.354712,-0.330641 -0.814159,-0.883982 -1.020928,-1.229666 -0.206775,-0.34568 -0.430458,-0.625268 -0.496838,-0.621692 -0.241354,0.0136 -0.165527,0.830486 0.138805,1.497585 0.40805,0.893652 1.674404,4.459868 1.613767,4.544341 -0.02583,0.03599 -0.60719,-0.527052 -1.292178,-1.251398 -0.684995,-0.724342 -1.275969,-1.280231 -1.313291,-1.235125 -0.0373,0.04508 0.484915,0.97512 1.160611,2.066542 1.226556,1.981267 2.329698,3.314124 3.214249,3.883984 0.704411,0.453805 0.597696,0.619823 -0.462353,0.719983 -1.185791,0.112036 -1.380577,0.405775 -0.449639,0.677682 1.583884,0.462622 2.080615,0.657931 2.096274,0.823693 0.02194,0.232425 -0.380193,0.603875 -1.393922,1.287542 l -0.838131,0.565002 1.631915,-0.102978 c 1.516678,-0.09573 1.660347,-0.07304 2.03632,0.321958 0.222495,0.233746 0.410652,0.490846 0.418254,0.571315 0.0076,0.08046 -0.416899,0.50246 -0.943599,0.937829 -0.932354,0.770704 -1.458175,1.359859 -1.306535,1.464206 0.04113,0.02831 0.797635,-0.317569 1.680811,-0.76859 0.883169,-0.451028 1.712176,-0.790128 1.842037,-0.753878 0.412511,0.115135 1.094199,1.166214 1.009697,1.556685 -0.04334,0.200281 -0.397885,0.841606 -0.788188,1.425327 -1.097566,1.641475 -0.597086,1.554599 1.067268,-0.185467 0.691717,-0.72315 0.843853,-0.801251 1.639428,-0.841647 0.810812,-0.04119 0.880003,-0.01067 0.917091,0.403333 0.02194,0.246285 -0.132968,1.145939 -0.343903,1.999393 -0.445258,1.801629 -0.424996,1.644884 -0.209734,1.624542 0.09358,-0.0089 0.446975,-0.519857 0.785263,-1.135647 1.078955,-1.96405 2.028424,-2.555218 3.151149,-1.962366 0.54515,0.287868 0.620749,0.906986 0.312323,2.561108 -0.125319,0.672194 -0.160764,1.255539 -0.07846,1.296277 0.157819,0.07806 0.927496,-2.051537 1.050468,-2.906481 0.08712,-0.605666 0.638769,-1.317659 0.915044,-1.181001 0.109627,0.05421 0.348446,0.375705 0.530659,0.714268 0.29492,0.547974 0.343138,0.575113 0.438602,0.248646 0.05897,-0.201703 0.08468,-0.663874 0.05723,-1.02716 -0.04046,-0.53561 0.02375,-0.684271 0.339415,-0.786377 2.726045,-0.881707 4.967424,-1.456981 6.091169,-1.563159 0.796561,-0.07526 1.364341,-0.203656 1.354646,-0.306292 -0.0092,-0.09719 -0.116349,-0.169862 -0.23816,-0.161724 -0.452135,0.03039 -1.703126,-0.519816 -1.441758,-0.634092 1.35833,-0.593919 1.564823,-0.64574 1.835577,-0.461092 0.568538,0.387721 0.03294,-0.61789 -0.952508,-1.788103 -0.548773,-0.651664 -0.301837,-0.488297 1.170769,0.773576 1.026389,0.879526 1.888418,1.560341 1.915872,1.512861 0.02744,-0.0475 0.298448,-0.471102 0.60201,-0.941083 0.303561,-0.469981 0.620285,-1.013192 0.703955,-1.207374 0.136436,-0.316664 0.2708,-0.23284 1.303684,0.812911 0.633375,0.641279 1.215244,1.159767 1.292929,1.152427 0.209593,-0.01979 -0.376778,-1.043497 -1.204013,-2.102137 -0.400401,-0.512416 -0.734844,-1.002961 -0.743076,-1.090153 -0.0083,-0.08721 0.518769,-0.757245 1.170809,-1.48899 1.189535,-1.334948 1.817476,-2.294172 1.612586,-2.463688 -0.06038,-0.04996 -0.578877,0.312164 -1.15187,0.804982 -1.637389,1.408315 -2.071342,1.640981 -2.701846,1.446986 -0.69257,-0.213088 -0.693046,-0.43979 -0.0027,-1.248588 0.723082,-0.846703 1.201644,-1.875157 1.537094,-3.303148 0.356107,-1.515857 0.284823,-2.095892 -0.295222,-2.402179 -0.74368,-0.39269 -0.870469,-0.290076 -0.665176,0.537859 0.255,1.028388 -0.09629,2.11231 -0.994212,3.06693 -0.972609,1.034021 -1.444039,1.158356 -2.742926,0.724773 C 55.266932,22.802526 49.18315,18.987298 44.106871,15.154996 40.648792,12.544338 39.173006,11.288201 38.426354,10.320345 L 37.89102,9.6263739 36.120367,10.2955 c -4.610384,3.089203 -8.591448,3.046784 -1.581757,2.296052 z m 62.774049,-1.651934 c -0.256335,0.02422 -1.560992,0.966311 -3.2193,2.324709 -7.223925,5.917457 -14.414948,10.375137 -17.191197,10.656119 -0.465942,0.04719 -1.641273,-0.762903 -2.066659,-1.424433 -0.38144,-0.593515 -0.505901,-1.887556 -0.299435,-3.119172 0.167192,-0.998069 0.0013,-1.215352 -0.378401,-0.496022 -0.43292,0.81985 -0.645391,2.073896 -0.539843,3.183846 0.110734,1.164807 0.603123,2.184104 1.689881,3.49972 0.648873,0.785497 0.390478,0.933588 -0.826491,0.474395 -0.828812,-0.312732 -1.083604,-0.524077 -1.632022,-1.354059 -0.653019,-0.988344 -1.158713,-1.475015 -1.324341,-1.274825 -0.04898,0.05923 0.02818,0.283702 0.171834,0.499171 0.143542,0.215486 0.342817,0.664942 0.442957,0.998709 0.100147,0.333772 0.258986,0.760063 0.353128,0.947302 0.139651,0.277757 0.06635,0.260059 -0.397724,-0.09615 -0.312866,-0.24012 -0.669134,-0.42711 -0.791824,-0.415516 -0.243152,0.02301 0.973454,1.370238 1.725748,1.911108 l 0.467385,0.335778 -0.332558,0.401951 c -0.745773,0.901411 -1.001981,1.916012 -0.850691,3.369585 0.176128,1.692209 0.531028,2.143915 0.573591,0.73006 0.01617,-0.537314 0.117912,-1.125141 0.225856,-1.306374 0.186641,-0.31341 0.220643,-0.316785 0.696575,-0.06548 0.275248,0.145346 0.508216,0.344091 0.517421,0.441454 0.0092,0.09734 0.187064,0.114645 0.395416,0.03858 0.208365,-0.07603 0.497683,-0.05716 0.643009,0.042 0.211036,0.143924 0.445587,-0.05327 1.164859,-0.98068 0.988072,-1.274029 2.729331,-2.930197 2.917341,-2.774673 0.06541,0.05414 -0.364902,0.64735 -0.956372,1.318632 -0.629048,0.713972 -1.114145,1.446199 -1.168837,1.764272 l -0.09349,0.543741 1.367313,-0.105876 c 1.558584,-0.120778 2.680471,0.154571 1.227482,0.301226 -0.46144,0.04629 -0.831442,0.164018 -0.822257,0.26122 0.0092,0.09719 -0.360079,0.222776 -0.82056,0.27916 l -0.837232,0.102757 1.021149,0.03408 c 0.671671,0.02241 1.620355,0.269358 2.770219,0.721359 1.925063,0.756742 1.973536,0.814756 2.140513,2.582 0.107051,1.133011 0.389284,1.082766 0.391115,-0.06971 0.002,-1.163906 0.157443,-1.349018 0.977111,-1.161793 0.877681,0.200482 1.032172,0.399663 1.445179,1.864486 l 0.359247,1.273728 -0.06172,-0.885685 c -0.195403,-2.802094 1.73343,-2.471052 2.309771,0.396422 0.310418,1.544421 0.52038,1.077305 0.345876,-0.76957 l -0.151418,-1.602609 0.931354,0.0013 c 0.796024,0.0013 1.020954,0.0871 1.548184,0.592007 0.339234,0.324876 0.916326,1.044027 1.28245,1.598127 l -3.42e-4,2.7e-5 c 1.011146,1.530292 1.303456,0.995836 0.465902,-0.851952 -0.624539,-1.37786 -0.630256,-1.747137 -0.03214,-2.131724 0.618722,-0.397831 1.033326,-0.441876 1.52642,-0.161609 0.493812,0.280649 3.215953,1.402549 3.368129,1.388172 0.120154,-0.01134 -0.698842,-0.756743 -1.955401,-1.780052 l -0.729262,-0.593818 0.464774,-0.602151 c 0.553805,-0.717769 0.998251,-0.793643 2.625295,-0.447593 0.634368,0.134934 1.324985,0.225729 1.534706,0.202542 0.330258,-0.0373 0.279278,-0.115135 -0.382984,-0.58509 -0.420454,-0.298361 -0.884014,-0.534006 -1.030072,-0.522902 -0.146051,0.01107 -0.388767,-0.04267 -0.539186,-0.119 -0.234048,-0.118832 -0.2307,-0.195819 0.02194,-0.534201 0.162368,-0.217463 0.460723,-0.420441 0.663291,-0.450967 0.296886,-0.04468 0.306949,-0.06568 0.05153,-0.107252 -0.410377,-0.06682 -0.41404,-0.218054 -0.01771,-0.733127 0.261831,-0.340293 0.533523,-0.444204 1.419759,-0.542298 0.60279,-0.06676 1.25012,-0.188091 1.43856,-0.26964 0.59847,-0.259113 0.41345,-0.565741 -0.37573,-0.622694 -0.41692,-0.03006 -0.95249,-0.107809 -1.189928,-0.172787 -0.576716,-0.157806 -0.386513,-0.419703 1.083138,-1.491848 1.23519,-0.901106 1.64335,-1.359821 0.87237,-0.980209 -0.25262,0.124354 -0.49205,0.199042 -0.53211,0.165898 -0.0401,-0.03314 0.30926,-0.487191 0.77632,-1.009095 1.23146,-1.376098 1.44157,-1.786362 0.57034,-1.113956 -0.38493,0.297116 -0.7359,0.510532 -0.77947,0.474485 -0.12568,-0.103989 0.33483,-1.217864 1.074,-2.598416 0.37444,-0.699295 0.64455,-1.301332 0.60038,-1.337931 -0.0442,-0.03655 -0.57546,0.45645 -1.18081,1.095718 -0.60532,0.639265 -1.13242,1.165322 -1.1711,1.168977 -0.108,0.01021 0.22569,-1.223357 0.7128,-2.636025 0.24146,-0.700237 0.41141,-1.296042 0.37778,-1.323864 -0.0336,-0.02782 -0.46573,0.55288 -0.96042,1.29046 -0.76295,1.137537 -0.94338,1.311197 -1.1888,1.143833 -0.17524,-0.11953 -0.27266,-0.374847 -0.24679,-0.647407 l 0.0428,-0.449803 -0.282597,0.458876 c -0.339744,0.551615 -0.599467,0.426389 -0.373638,-0.180262 0.120496,-0.323683 0.04757,-0.276072 -0.292277,0.190597 -0.249277,0.34227 -0.500192,0.626745 -0.557367,0.632147 -0.100677,0.0095 0.0871,-1.691125 0.268513,-2.43246 0.04911,-0.20078 -0.121127,0.01589 -0.378321,0.481503 -0.868014,1.571382 -1.104215,1.818521 -1.17034,1.224973 -0.02637,-0.236452 -0.144146,-0.162683 -0.502715,0.314953 -0.554073,0.738069 -0.790892,0.834728 -0.446305,0.182165 0.379307,-0.718315 0.274082,-0.742595 -0.349961,-0.08081 -0.619803,0.657279 -1.102155,0.863958 -0.743365,0.318537 0.14683,-0.2232 0.05012,-0.185342 -0.308351,0.120027 -0.632785,0.53904 -1.713068,0.917637 -1.523281,0.533964 0.08933,-0.180577 0.04535,-0.209329 -0.162562,-0.106177 -0.235778,0.116987 -0.276758,0.05619 -0.234235,-0.348752 0.04696,-0.447569 0.03462,-0.459296 -0.143696,-0.131295 -0.464708,0.854802 -0.740138,1.016334 -2.682142,1.570844 -2.85478,0.815131 -3.286002,0.91406 -3.298844,0.756752 -0.006,-0.07743 0.874106,-0.737604 1.956476,-1.466758 2.392615,-1.611863 7.092392,-5.224241 8.522885,-6.551026 0.523292,-0.485387 0.658736,-0.529888 1.406796,-0.462016 0.455248,0.04132 1.944797,0.340078 3.309777,0.663763 1.36498,0.323686 2.55727,0.531318 2.64954,0.461477 0.40536,-0.306732 0.055,-0.831409 -0.96545,-1.445946 -1.26941,-0.76446 -5.800565,-2.462536 -6.415893,-2.404397 z M 33.322091,24.316733 c 0.09045,-0.0074 0.347017,0.111985 0.719641,0.362788 l 2.7e-5,3.45e-4 c 0.380918,0.256403 0.478743,0.393377 0.293095,0.411451 -0.153115,0.01496 -0.484184,-0.153806 -0.735427,-0.375228 -0.292076,-0.257474 -0.367775,-0.391923 -0.277336,-0.399356 z m 9.301352,0.527038 0.304373,1.050461 c 0.184454,0.636642 0.517502,1.28098 0.845115,1.635618 0.70678,0.765075 2.235226,1.29201 3.68898,1.2715 0.982914,-0.01389 1.250628,-0.09094 2.030269,-0.582567 0.493986,-0.311498 1.172829,-0.870032 1.508339,-1.241235 l 0.610108,-0.674744 0.700762,0.502132 c 0.385385,0.276154 1.407621,1.052494 2.27167,1.725453 l 1.570948,1.223664 -3.91772,0.358308 c -5.811345,0.531423 -6.73752,0.515207 -8.443201,-0.146702 -0.918943,-0.35661 -1.705682,-0.818205 -2.251932,-1.321249 -0.912944,-0.840801 -1.69749,-2.002701 -1.753705,-2.597653 -0.01952,-0.206574 -0.14059,-0.430196 -0.269479,-0.496911 -0.257335,-0.133203 0.983672,-0.463997 2.307879,-0.615059 z m 1.911592,0.136987 0.703109,0.545438 c 1.418404,1.100149 2.456789,1.359061 3.292981,0.821365 0.56003,-0.360119 1.223852,-0.485385 1.247488,-0.235229 0.0083,0.08811 0.179388,0.10061 0.379743,0.02751 0.324568,-0.11847 0.346359,-0.09039 0.200241,0.257939 -0.09021,0.215014 -0.431739,0.638091 -0.758803,0.940224 -1.121423,1.036009 -3.643813,1.046214 -4.745828,0.01939 -0.587357,-0.547304 -0.834803,-1.399765 -0.558206,-1.923567 z m 40.310893,0.875165 c 0.239194,-0.01543 0.681755,0.118195 1.389755,0.396979 1.499483,0.590443 2.782389,0.402038 4.304556,-0.631684 0.310351,-0.210761 0.585572,-0.361153 0.611631,-0.334303 0.02603,0.02684 -0.04093,0.332706 -0.148923,0.679568 -0.136967,0.440045 -0.245413,0.565706 -0.358744,0.415932 -0.114451,-0.151237 -0.192874,-0.15319 -0.265017,-0.0074 -0.05629,0.11386 -0.05327,0.2718 0.0067,0.351095 0.134981,0.178376 -0.27767,0.627646 -0.988992,1.076547 l -3.4e-5,-3.43e-4 c -0.609027,0.38434 -1.529794,0.526519 -1.726499,0.266561 -0.07208,-0.09526 -0.279087,-0.110238 -0.459723,-0.03355 -0.18063,0.07671 -0.335732,0.06239 -0.344641,-0.03187 -0.0089,-0.09424 -0.242562,-0.231861 -0.519226,-0.305802 -0.741902,-0.198288 -1.494123,-0.803264 -1.671848,-1.344375 -0.104347,-0.317697 -0.06819,-0.482024 0.170996,-0.497435 z m 7.752396,-0.681272 c 0.06817,-0.0085 0.146494,-0.0034 0.240918,0.01033 0.803867,0.11904 2.025015,0.662869 2.048598,0.912475 0.06804,0.720165 -1.236016,2.485114 -2.37966,3.220468 -0.303447,0.195122 -1.144329,0.519448 -1.868881,0.720547 -0.724512,0.201099 -1.676094,0.393893 -2.114146,0.42821 -1.298525,0.10173 -4.380047,-0.212478 -6.186647,-0.63049 -1.427487,-0.330291 -1.765936,-0.35237 -2.218789,-0.144877 -0.293906,0.134625 -0.76109,0.240448 -1.038217,0.234954 -0.440112,-0.0088 -0.377402,-0.07122 0.495684,-0.492591 0.549719,-0.265319 1.105771,-0.452631 1.235948,-0.416275 0.147152,0.04106 0.41808,-0.368109 0.715864,-1.081383 0.34346,-0.822767 0.64142,-1.244349 1.053279,-1.490768 0.560957,-0.335624 0.583312,-0.334055 0.961177,0.06273 0.840821,0.882941 1.768572,1.591754 2.367738,1.809706 0.777225,0.28271 2.180379,0.473168 2.918128,0.396053 1.109528,-0.11602 2.594922,-1.466507 3.279427,-2.981971 0.173371,-0.383823 0.285152,-0.531108 0.489585,-0.557133 z m -38.697859,5.585315 c 0.353222,-0.0157 0.966423,0.09932 1.073796,0.24122 0.06394,0.08451 -0.02811,0.161945 -0.204481,0.172545 -0.449082,0.02657 -1.218109,-0.216785 -1.107462,-0.350525 0.0316,-0.03817 0.120402,-0.05803 0.238141,-0.06327 z"
       sodipodi:nodetypes="csssssscccccsccscsssssssccscsssscsssscccsssssssscsccsssscssssccsscssssssssssssssscssssssscccssscsscsscssssssccsssssscscsssccssccsssssccssscssccsssscccscscssscsscssssssssscssssssccsssssssssssssssssccssscsssccccsccsssccscccscssccccsscscsccsssscsscccsssssssssssssccsssscsssssscss" /></g><metadata
     id="metadata3619"><rdf:RDF><cc:License
         rdf:about="http://creativecommons.org/publicdomain/zero/1.0/"><cc:permits
           rdf:resource="http://creativecommons.org/ns#Reproduction" /><cc:permits
           rdf:resource="http://creativecommons.org/ns#Distribution" /><cc:permits
           rdf:resource="http://creativecommons.org/ns#DerivativeWorks" /></cc:License><cc:Work
         rdf:about=""><cc:license
           rdf:resource="http://creativecommons.org/publicdomain/zero/1.0/" /><dc:title>Punk eyes</dc:title></cc:Work></rdf:RDF></metadata></svg>
