<?xml version="1.0" encoding="UTF-8" standalone="no"?>
<!-- Created with Inkscape (http://www.inkscape.org/) -->

<svg
   width="59.572559mm"
   height="56.453419mm"
   viewBox="0 0 59.572559 56.453419"
   version="1.1"
   id="svg1925"
   xml:space="preserve"
   inkscape:version="1.2 (dc2aedaf03, 2022-05-15)"
   sodipodi:docname="Eye goth.svg"
   xmlns:inkscape="http://www.inkscape.org/namespaces/inkscape"
   xmlns:sodipodi="http://sodipodi.sourceforge.net/DTD/sodipodi-0.dtd"
   xmlns="http://www.w3.org/2000/svg"
   xmlns:svg="http://www.w3.org/2000/svg"
   xmlns:rdf="http://www.w3.org/1999/02/22-rdf-syntax-ns#"
   xmlns:cc="http://creativecommons.org/ns#"
   xmlns:dc="http://purl.org/dc/elements/1.1/"><title
     id="title2265">Eye</title><sodipodi:namedview
     id="namedview1927"
     pagecolor="#ffffff"
     bordercolor="#666666"
     borderopacity="1.0"
     inkscape:showpageshadow="2"
     inkscape:pageopacity="0.0"
     inkscape:pagecheckerboard="0"
     inkscape:deskcolor="#d1d1d1"
     inkscape:document-units="mm"
     showgrid="false"
     inkscape:zoom="1.1649778"
     inkscape:cx="427.47597"
     inkscape:cy="70.38761"
     inkscape:window-width="1920"
     inkscape:window-height="1009"
     inkscape:window-x="1912"
     inkscape:window-y="-8"
     inkscape:window-maximized="1"
     inkscape:current-layer="layer1" /><defs
     id="defs1922" /><g
     inkscape:label="Lager 1"
     inkscape:groupmode="layer"
     id="layer1"
     transform="translate(125.4929,60.451928)"><ellipse
       style="opacity:0.996;fill:#008080;fill-opacity:1;stroke:none;stroke-width:0.665001"
       id="path2155"
       cx="-89.16993"
       cy="-30.231857"
       rx="6.6245108"
       ry="5.018569" /><ellipse
       style="opacity:0.996;fill:#ffffff;fill-opacity:1;stroke:none;stroke-width:0.665001"
       id="path2209"
       cx="-89.370667"
       cy="-31.998394"
       rx="1.686239"
       ry="1.5657934" /><path
       id="path1941"
       style="fill:#000000;stroke-width:0.264583"
       d="m -105.08074,-60.45012 c -0.11475,0.01753 -0.2518,0.128635 -0.4191,0.330212 -0.33099,0.398825 -0.52663,0.487836 -6.69313,3.041675 -2.42579,1.004637 -5.10471,2.269142 -5.95312,2.810162 -1.69747,1.08245 -1.42061,1.04469 2.2934,-0.31522 2.3028,-0.84322 2.82594,-0.93208 6.23837,-1.057303 l 3.72484,-0.136943 1.03766,0.890386 c 0.57078,0.48965 2.34596,2.06911 3.94447,3.50986 1.598492,1.44074 3.704198,3.25636 4.679297,4.03438 1.853258,1.47869 2.710693,2.42588 1.45004,1.60145 -0.512825,-0.33538 -1.410591,-0.51398 -2.989481,-0.59428 -1.241125,-0.0631 -2.394536,-0.20343 -2.563666,-0.31212 -0.16914,-0.10869 -3.70129,-0.26613 -7.84862,-0.34933 -8.6231,-0.17304 -9.32151,-0.32002 -12.03647,-2.53163 -1.20862,-0.98454 -1.45728,-1.09934 -1.45728,-0.67438 0,1.035 2.32182,6.89971 3.52175,8.8961 0.67991,1.1312 1.15891,2.18079 1.06505,2.33267 -0.0939,0.15187 -0.0512,0.20224 0.0946,0.11214 0.28497,-0.17612 1.29095,0.81852 2.0252,2.00246 l 0.45269,0.73019 -1.26453,-0.78031 c -0.69536,-0.42899 -1.711,-1.19003 -2.25671,-1.69137 -1.47261,-1.35292 -1.20554,-0.72123 0.67593,1.5999 1.41995,1.75175 2.40846,2.5643 3.75585,3.0856 0.14552,0.0563 0.0265,0.29055 -0.26459,0.5209 -0.43658,0.34549 -1.31618,0.41786 -5.02708,0.41186 -2.13017,0.27209 -1.42071,0.0513 -6.59753,0.39739 0.007,0.003 0.0119,0.004 0.0191,0.007 0.55286,0.21868 4.99871,0.81038 8.05997,1.0728 1.10572,0.0948 2.43982,0.2692 2.96468,0.38757 0.52486,0.11841 0.98907,0.11933 1.03198,0.003 0.10423,-0.28359 1.53324,0.005 1.53324,0.30954 0,0.1313 -0.32743,0.17614 -0.72761,0.0997 l -0.7276,-0.13901 0.79375,0.38654 c 0.43656,0.21255 0.94258,0.39142 1.12448,0.39842 0.55204,0.0199 0.36994,1.18353 -0.24546,1.56786 -0.31705,0.19799 -1.80005,0.86515 -3.29541,1.48312 -2.37951,0.98335 -5.38882,2.62854 -5.38882,2.94607 0,0.06 0.62508,-0.20863 1.38906,-0.59738 1.95164,-0.99309 4.7699,-1.67397 6.95358,-1.67897 1.83171,-0.004 1.86524,0.008 2.16473,0.80151 0.30173,0.79934 0.28574,0.82048 -1.99264,2.70681 -2.61534,2.16527 -6.13348,5.5846 -6.13348,5.96139 0,0.13891 0.76278,-0.49518 1.69499,-1.40922 3.61288,-3.54285 8.43027,-5.42835 9.03097,-3.5357 0.1398,0.44047 -0.12924,0.87574 -1.26711,2.05001 -1.50805,1.55626 -2.3151,2.62077 -2.3151,3.05459 0,0.14058 0.23063,0.008 0.51211,-0.29404 0.69295,-0.74379 3.51883,-2.43966 4.56562,-2.73988 0.70944,-0.20346 0.9483,-0.1495 1.45727,0.32866 0.33483,0.31456 0.60875,0.68188 0.60875,0.81649 0,0.13459 -0.41492,0.91764 -0.92242,1.73994 -0.90307,1.46323 -2.78175,5.63426 -2.78175,6.17637 0,0.15058 0.47989,-0.44455 1.06609,-1.3224 0.99751,-1.49379 3.55128,-4.0951 4.86482,-4.95577 0.47372,-0.31045 0.73601,-0.32185 1.42575,-0.0615 0.46501,0.17553 0.845427,0.43245 0.845427,0.57103 0,0.13858 -0.298868,1.00001 -0.664559,1.91409 -1.140948,2.85193 -2.357158,10.1543703 -1.753378,10.5275303 0.14013,0.0866 0.34004,-0.34806 0.44441,-0.96584 0.60358,-3.57252 2.592692,-8.2745903 4.09071,-9.6702103 1.081774,-1.00783 4.045483,-1.07902 4.346505,-0.10438 0.115493,0.37394 0.935278,6.9157403 0.942578,7.5220203 0.0013,0.10914 0.104651,0.19844 0.22996,0.19844 0.125309,0 0.290206,-0.68746 0.366386,-1.52756 0.233627,-2.5764903 0.971733,-4.7298203 2.029334,-5.9216003 0.838913,-0.94534 1.136182,-1.10024 2.329573,-1.21491 2.299621,-0.22097 2.508461,-0.0817 3.512964,2.35127 0.492678,1.1933 1.233577,3.25056 1.646411,4.5718203 0.572157,1.83117 0.717605,2.11937 0.612883,1.21181 -0.317171,-2.7487203 -0.469844,-6.0616703 -0.309025,-6.7024303 0.165728,-0.66033 2.924641,-3.09531 4.394563,-3.87884 0.621297,-0.33117 0.628211,-0.35949 0.132292,-0.53898 -0.452841,-0.1639 -0.381048,-0.25645 0.534851,-0.68627 1.259028,-0.59081 1.421289,-0.78056 1.335319,-1.56372 -0.06262,-0.57048 -8.09e-4,-0.58955 1.474329,-0.45579 2.586189,0.23451 3.528182,-0.80864 2.283581,-2.52853 -2.779854,-3.8414 -3.367737,-4.73905 -3.370337,-5.14284 -0.0016,-0.25466 -0.09309,-0.46302 -0.203605,-0.46302 -0.110517,0 -0.354389,-0.24495 -0.541569,-0.54467 -0.305846,-0.48975 -0.292111,-0.51873 0.134876,-0.28628 0.261312,0.14226 0.891625,0.70283 1.400948,1.24591 0.509315,0.54312 0.758831,0.89171 0.554488,0.77463 -0.414719,-0.23759 0.939086,1.79251 1.801957,2.70216 0.3048,0.32134 0.553972,0.65658 0.553972,0.74518 3.273982,4.34859 1.52246,0.99394 0.209289,-0.73432 -1.602803,-2.09932 -1.729546,-2.45257 -0.545703,-1.52136 0.369998,0.29104 0.870226,0.52917 1.11156,0.52917 0.241334,0 1.142451,0.59532 2.002979,1.32292 0.860524,0.72761 1.65725,1.32291 1.769917,1.32291 0.39333,0 0.558952,-1.3988 0.22841,-1.92804 -0.838653,-1.3429 -1.31061,-2.30604 -1.133781,-2.31304 0.106656,-0.004 -0.01457,-0.12969 -0.269234,-0.27802 -0.254662,-0.14833 -0.463021,-0.43796 -0.463021,-0.64389 0,-0.20593 -0.238128,-0.50208 -0.529166,-0.65784 -0.291042,-0.15574 -0.529167,-0.23093 -0.529167,-0.16743 0,0.0635 -0.359973,-0.22155 -0.800468,-0.63304 -0.4405,-0.41149 -1.18464,-0.83012 -1.653646,-0.93069 -1.148317,-0.24624 -1.374362,-0.40838 -0.947229,-0.67903 0.251026,-0.15911 0.139832,-0.22851 -0.36897,-0.23151 -0.685981,-0.004 -0.84804,-0.22008 -0.747241,-0.99632 0.02362,-0.18191 -0.08116,-0.33073 -0.233061,-0.33073 -0.151896,0 -0.276468,-0.12598 -0.276468,-0.28009 0,-0.15409 0.130509,-0.19978 0.289904,-0.10128 0.159399,0.0985 0.57487,0.0271 0.922941,-0.15917 0.530646,-0.284 0.900413,-0.26051 2.289783,0.14677 0.911351,0.26712 1.975135,0.64203 2.364197,0.83302 0.672045,0.32992 0.715759,0.3101 0.871265,-0.39791 0.199317,-0.90751 -0.120576,-2.44207 -1.305347,-6.25905 -0.496861,-1.60073 -1.086988,-3.50572 -1.311031,-4.23333 l -0.407211,-1.32292 0.161231,2.71198 c 0.184682,3.10432 0.297861,2.98732 -2.249992,2.32182 -2.334252,-0.6097 -9.399854,-3.74916 -13.574365,-6.03167 -4.295373,-2.3486 -11.869801,-7.02978 -14.634249,-9.04441 -2.96969,-2.164202 -3.79767,-3.021896 -4.02766,-4.171838 -0.10145,-0.507246 -0.23043,-0.738221 -0.42168,-0.709001 z m 12.566155,21.791949 c 0.05385,-0.005 0.103237,1.6e-4 0.147795,0.014 0.267346,0.0827 0.361553,0.48362 0.214457,1.0697 -0.18275,0.72813 -0.474366,0.81808 -0.91829,0.28318 -0.350666,-0.42253 -0.149451,-1.12076 0.381372,-1.32446 0.06252,-0.024 0.12082,-0.0378 0.174666,-0.0424 z m 1.335836,0.18655 c 0.0995,0.007 0.228453,0.0342 0.395325,0.0744 0.825935,0.19917 1.389062,0.81518 1.389062,1.5198 0,0.53144 -0.309309,0.56155 -1.389062,0.13488 -0.56162,-0.22192 -0.727604,-0.46346 -0.727604,-1.05885 0,-0.53072 0.03377,-0.69113 0.332279,-0.67025 z m -2.986381,0.22066 c 0.140954,0 0.188146,0.1786 0.104386,0.39688 -0.08376,0.21828 -0.199125,0.39687 -0.256315,0.39687 -0.05718,0 -0.104386,-0.17859 -0.104386,-0.39687 0,-0.21828 0.115361,-0.39688 0.256315,-0.39688 z m 5.264278,0.58395 c 0.269201,0.003 0.844264,0.22417 2.020032,0.66507 0.752646,0.28223 1.322917,0.6614 1.322917,0.88005 0,0.2402 -0.322473,0.41536 -0.859896,0.46716 -0.57862,0.0558 -0.859896,-0.0311 -0.859896,-0.26665 0,-0.21906 -0.321769,-0.34979 -0.859896,-0.34779 -0.752185,0.002 -0.870412,-0.0929 -0.946712,-0.76119 -0.04868,-0.42637 -0.08575,-0.64012 0.183451,-0.63665 z m -23.716378,0.90278 c 0.11669,-0.009 0.38992,0.12072 0.7059,0.34572 0.4213,0.3 1.04638,0.65753 1.38906,0.79478 0.55093,0.22066 0.56144,0.2511 0.0935,0.262 -0.61139,0.0142 -2.24896,-0.96559 -2.24896,-1.34565 0,-0.0353 0.0216,-0.0539 0.0605,-0.0568 z m -3.17087,0.97565 c 0.049,0.009 0.17769,0.0702 0.38396,0.17002 0.31931,0.15453 0.65365,0.39941 0.7431,0.54415 0.2601,0.42085 -0.0251,0.30608 -0.69918,-0.28112 -0.29588,-0.25774 -0.4443,-0.39015 -0.4501,-0.42478 -10e-4,-0.009 0.006,-0.0114 0.0222,-0.008 z m 17.482137,2.84996 c 0.491255,-0.0216 0.864918,0.0624 0.997872,0.27233 0.128246,0.20253 0.235095,0.67226 0.237195,1.04387 0.0059,0.98167 1.155343,3.13391 2.310453,4.32583 1.425201,1.47061 3.801377,2.53912 5.648751,2.53938 3.113758,4.4e-4 5.42336,-1.30413 7.409367,-4.18475 l 0.901237,-1.30742 1.458309,1.14722 c 1.928286,1.51661 4.117744,3.75774 3.891752,3.98373 -0.202303,0.2023 0.286894,0.89039 0.633036,0.89039 0.12314,0 0.155591,-0.1786 0.07183,-0.39688 -0.107309,-0.27964 0.02156,-0.39687 0.437182,-0.39687 0.474078,0 0.529954,0.0724 0.284221,0.36845 -0.24212,0.29174 -0.152656,0.48285 0.430464,0.91778 0.489788,0.36532 0.598341,0.55158 0.324012,0.55758 -0.226848,0.005 -0.643567,-0.16668 -0.926042,-0.38033 -0.282474,-0.21365 -0.728938,-0.39188 -0.992188,-0.39688 -0.263249,-0.005 -0.405166,-0.12733 -0.315226,-0.27285 0.179956,-0.2912 -0.468036,-0.36964 -0.747241,-0.0904 -0.09592,0.0959 -1.098376,0.20462 -2.227254,0.24132 -1.128878,0.0367 -3.183686,0.31255 -4.56613,0.61289 -5.639279,1.22517 -9.705842,0.88022 -13.775903,-1.16944 -2.44941,-1.2335 -5.073954,-4.0858 -5.438944,-5.91075 -0.14011,-0.70053 -0.0398,-0.83986 1.079,-1.49552 0.90896,-0.53268 2.055491,-0.86273 2.874246,-0.89865 z m 8.822718,0.31213 c 0.66748,-0.002 1.302403,0.52558 1.030945,0.96479 -0.182462,0.29522 -1.071071,0.35627 -1.669666,0.11473 -0.573469,-0.2314 -0.358639,-0.86617 0.353467,-1.0449 0.09415,-0.0236 0.189899,-0.0344 0.285254,-0.0346 z m -4.475696,0.99425 c 0.90458,-0.003 1.317347,0.16895 2.116667,0.88367 1.291233,1.15458 1.965059,1.49345 2.970361,1.49345 0.821164,0 2.439731,-0.69834 3.737756,-1.61231 0.676629,-0.47643 0.693316,-0.47466 0.976168,0.10077 0.941693,1.91576 -0.27517,4.37381 -2.434477,4.91753 -1.790957,0.45097 -2.783542,0.34496 -4.470528,-0.47697 -1.829075,-0.89115 -2.502215,-1.48993 -3.80907,-3.38739 -1.126795,-1.63607 -0.995401,-1.91175 0.913123,-1.91875 z m -10.384379,2.42156 c 0.007,-0.003 0.0163,-0.002 0.0274,0.003 0.0885,0.042 0.30148,0.35492 0.65267,0.94464 0.99353,1.66831 3.20907,3.79614 4.613159,4.43074 1.831785,0.8279 4.883377,1.6398 7.445023,1.98076 2.200032,0.29283 3.837871,0.17927 9.529651,-0.66198 1.33316,-0.19701 2.740858,-0.27355 3.127975,-0.17001 0.496172,0.13269 -0.570541,0.36552 -3.614767,0.78961 -6.745699,0.93972 -9.565337,0.9001 -13.535608,-0.18913 -2.630335,-0.72163 -4.187593,-1.53038 -5.951573,-3.0918 -1.34516,-1.19069 -1.67782,-1.70392 -2.17144,-3.35277 -0.12918,-0.43147 -0.17286,-0.66073 -0.12248,-0.68316 z"
       sodipodi:nodetypes="ssssccccssscscssssccccsssccccscssccccsssscssscsssssssssscsssssssssssssssssscssscssscssccssssccssssssccssssscssscccssssssssssssssssssssssssssscsssssssssssssssscsscccsssssscscsscsssssssssscssssssscssssscsssssscssssscs" /></g><metadata
     id="metadata2263"><rdf:RDF><cc:License
         rdf:about="http://creativecommons.org/publicdomain/zero/1.0/"><cc:permits
           rdf:resource="http://creativecommons.org/ns#Reproduction" /><cc:permits
           rdf:resource="http://creativecommons.org/ns#Distribution" /><cc:permits
           rdf:resource="http://creativecommons.org/ns#DerivativeWorks" /></cc:License><cc:Work
         rdf:about=""><cc:license
           rdf:resource="http://creativecommons.org/publicdomain/zero/1.0/" /><dc:title>Eye</dc:title></cc:Work></rdf:RDF></metadata></svg>
